<svg xmlns="http://www.w3.org/2000/svg"><defs><style>.cls-1{fill:#e30613;}</style></defs><title>Fichier 1</title><g id="Calque_2" data-name="Calque 2"><g id="Calque_1-2" data-name="Calque 1"><path class="cls-1" d="M36.43,57.33H0V0H36.43ZM3.54,53.8H32.89V3.54H3.54Z"/><polygon class="cls-1" points="14.15 17.77 18.17 21.79 22.27 17.77 22.27 23.08 25.09 23.08 25.09 10.78 18.17 17.69 11.26 10.78 11.26 23.08 14.15 23.08 14.15 17.77"/><polygon class="cls-1" points="25.09 38.03 25.09 25.73 22.19 25.73 22.19 31.04 18.17 27.02 14.15 31.04 14.15 25.73 11.26 25.73 11.26 38.03 18.17 31.12 25.09 38.03"/><polygon class="cls-1" points="18.41 35.06 10.78 44.47 12.87 46.48 18.41 39.16 23.56 46.4 25.57 44.39 18.41 35.06"/><rect class="cls-1" x="16.81" y="42.86" width="2.81" height="2.81"/></g></g></svg>