<svg xmlns="http://www.w3.org/2000/svg" viewBox="0 0 201.28 57.33"><defs><style>.cls-1{fill:#e30613;}</style></defs><title>Fichier 1</title><g id="Calque_2" data-name="Calque 2"><g id="Calque_1-2" data-name="Calque 1"><path d="M54.75,1.55v.56L50.47,4.25l4.28,2.23V7L49.82,4.53V4.06Z"/><path d="M62.28,8,57.07,1.36V8h-.55V.62h.55L62.19,7V.62h.56V8Z"/><path d="M70.66,8l-.93-2H65.35L64.42,8h-.55L67.31.53h.56L71.31,8ZM67.59,1.18l-2,4.28h3.91Z"/><path d="M77.08,7a1.73,1.73,0,0,1-.47.65,1.84,1.84,0,0,1-.74.37,3.44,3.44,0,0,1-1,.19,4.52,4.52,0,0,1-1.58-.28A4.18,4.18,0,0,1,71.87,7l.37-.38a1.56,1.56,0,0,0,.65.47,4.17,4.17,0,0,0,.65.37,2.58,2.58,0,0,0,.65.19c.19,0,.47.09.75.09a1.83,1.83,0,0,0,.74-.09,3.61,3.61,0,0,0,.56-.28,1.92,1.92,0,0,0,.37-.47,1.2,1.2,0,0,0,.09-.56h0a1.18,1.18,0,0,0-.09-.55,1.52,1.52,0,0,0-.37-.47,1.54,1.54,0,0,0-.65-.37c-.28-.09-.65-.19-1-.28a9.8,9.8,0,0,1-1.11-.28,2.11,2.11,0,0,1-.75-.46,2.77,2.77,0,0,1-.46-.56,1.91,1.91,0,0,1-.09-.75h0a1.75,1.75,0,0,1,.18-.74,1.56,1.56,0,0,1,.47-.65,1.72,1.72,0,0,1,.74-.37,3.08,3.08,0,0,1,.93-.19,5.32,5.32,0,0,1,1.4.19A6.4,6.4,0,0,1,77,1.46l-.37.46a4.33,4.33,0,0,0-1-.65,4.15,4.15,0,0,0-1.12-.19,1.66,1.66,0,0,0-.74.1l-.56.28a.89.89,0,0,0-.37.46,1.11,1.11,0,0,0-.1.56h0a1.11,1.11,0,0,0,.1.56,1.5,1.5,0,0,0,.37.46,4.14,4.14,0,0,0,.65.38,9.8,9.8,0,0,0,1.12.27,5.18,5.18,0,0,1,1.86.75,1.56,1.56,0,0,1,.56,1.3h0A4.87,4.87,0,0,1,77.08,7Z"/><path d="M85.17,8V1.55L82.29,5.83h0L79.4,1.55V8h-.56V.62h.56l3,4.37,3-4.37h.56V8Z"/><path d="M94.38,5.74A5.3,5.3,0,0,1,93.64,7a2.82,2.82,0,0,1-1.21.83,3.8,3.8,0,0,1-1.49.28,3.48,3.48,0,0,1-1.49-.28A4.6,4.6,0,0,1,88.24,7a5.3,5.3,0,0,1-.74-1.21,3.8,3.8,0,0,1-.28-1.49h0a4.1,4.1,0,0,1,.28-1.49,4.9,4.9,0,0,1,.74-1.21A2.93,2.93,0,0,1,89.45.71a4.1,4.1,0,0,1,3,0,3.67,3.67,0,0,1,1.21.84,3.17,3.17,0,0,1,.74,1.21,3.77,3.77,0,0,1,.28,1.49h0A3.8,3.8,0,0,1,94.38,5.74Zm-.28-1.4A2.92,2.92,0,0,0,93.82,3a3.75,3.75,0,0,0-.65-1,4.52,4.52,0,0,0-1-.74A2.92,2.92,0,0,0,90.85,1a2.51,2.51,0,0,0-1.21.28,2.66,2.66,0,0,0-1,.74A4,4,0,0,0,88,3a3,3,0,0,0-.18,1.3h0a2.89,2.89,0,0,0,.28,1.3,3.61,3.61,0,0,0,.65,1,4,4,0,0,0,1,.74,2.92,2.92,0,0,0,1.3.28,3.17,3.17,0,0,0,1.3-.28,2.56,2.56,0,0,0,1-.74,3.84,3.84,0,0,0,.65-1c0-.46.09-.83.09-1.3Z"/><path d="M104.62,7.41a2.2,2.2,0,0,1-.66.37c-.27.1-.46.19-.74.28a2.68,2.68,0,0,1-.93.1,4,4,0,0,1-1.49-.28A3.67,3.67,0,0,1,99.59,7a3.25,3.25,0,0,1-.74-1.21,3.8,3.8,0,0,1-.28-1.49h0a3.8,3.8,0,0,1,.28-1.49,5.09,5.09,0,0,1,.74-1.21A3.5,3.5,0,0,1,100.8.81a3.8,3.8,0,0,1,1.49-.28,3,3,0,0,1,.93.09c.28.09.56.09.74.28a2.2,2.2,0,0,1,.66.37c.18.19.37.28.55.47l-.37.37c-.18-.19-.37-.28-.46-.47s-.38-.28-.56-.37a1.84,1.84,0,0,0-.65-.19,2.15,2.15,0,0,0-.75-.09,2.57,2.57,0,0,0-1.21.28,2.7,2.7,0,0,0-1,.74,3.75,3.75,0,0,0-.65,1,2.92,2.92,0,0,0-.28,1.3h0a2.89,2.89,0,0,0,.28,1.3,3.61,3.61,0,0,0,.65,1,4,4,0,0,0,1,.74,2.84,2.84,0,0,0,1.21.28,3.06,3.06,0,0,0,1.4-.28,4.06,4.06,0,0,0,1.11-.84l.38.38A1.63,1.63,0,0,0,104.62,7.41Z"/><path d="M113,5.74A5.72,5.72,0,0,1,112.24,7a2.73,2.73,0,0,1-1.2.83,3.8,3.8,0,0,1-1.49.28,3.48,3.48,0,0,1-1.49-.28A4.6,4.6,0,0,1,106.85,7a5.72,5.72,0,0,1-.75-1.21,4,4,0,0,1-.27-1.49h0a4.31,4.31,0,0,1,.27-1.49,5.25,5.25,0,0,1,.75-1.21,2.87,2.87,0,0,1,1.21-.84,4.1,4.1,0,0,1,3,0,3.63,3.63,0,0,1,1.2.84A3.19,3.19,0,0,1,113,2.76a3.77,3.77,0,0,1,.28,1.49h0A3.8,3.8,0,0,1,113,5.74Zm-.28-1.4a2.92,2.92,0,0,0-.28-1.3,4,4,0,0,0-.65-1,4.52,4.52,0,0,0-1-.74A3,3,0,0,0,109.45,1a3.24,3.24,0,0,0-1.3.28,2.7,2.7,0,0,0-1,.74,3.75,3.75,0,0,0-.65,1,2.9,2.9,0,0,0-.19,1.3h0a2.89,2.89,0,0,0,.28,1.3,3.84,3.84,0,0,0,.65,1,4,4,0,0,0,1,.74,3,3,0,0,0,1.31.28,3.24,3.24,0,0,0,1.3-.28,2.6,2.6,0,0,0,1-.74,3.61,3.61,0,0,0,.65-1,5.75,5.75,0,0,0,.19-1.3Z"/><path d="M121.18,8V1.55l-2.89,4.28h0l-3-4.28V8h-.56V.62h.56l3,4.37,3-4.37h.56V8Z"/><path d="M130,8V1.55l-2.89,4.28h0l-2.88-4.28V8h-.56V.62h.56l3,4.37,3-4.37h.56V8Z"/><path d="M138.11,6.29a3.84,3.84,0,0,1-.65,1,3.45,3.45,0,0,1-.93.65,2.51,2.51,0,0,1-1.21.19A4.8,4.8,0,0,1,134.11,8a2.11,2.11,0,0,1-.93-.65,2.68,2.68,0,0,1-.65-1,3.08,3.08,0,0,1-.19-1.39V.62h.56V4.9A2.89,2.89,0,0,0,133.55,7a2.46,2.46,0,0,0,1.86.74,3.09,3.09,0,0,0,1-.19,2,2,0,0,0,.75-.46,1.78,1.78,0,0,0,.46-.84A4.39,4.39,0,0,0,137.83,5V.62h.56V4.9A6.85,6.85,0,0,1,138.11,6.29Z"/><path d="M145.74,8l-5.21-6.61V8H140V.62h.56L145.65,7V.62h.55V8Z"/><path d="M148.06,8V.62h.56V8Z"/><path d="M156.25,7.41a2,2,0,0,1-.65.37c-.28.1-.46.19-.74.28a2.68,2.68,0,0,1-.93.1,4,4,0,0,1-1.49-.28A3.57,3.57,0,0,1,151.23,7a3.41,3.41,0,0,1-.75-1.21,4,4,0,0,1-.28-1.49h0a4,4,0,0,1,.28-1.49,5.47,5.47,0,0,1,.75-1.21,3.4,3.4,0,0,1,1.21-.83,3.77,3.77,0,0,1,1.49-.28,3,3,0,0,1,.93.09c.28.09.55.09.74.28a2,2,0,0,1,.65.37c.19.19.37.28.56.47l-.37.37c-.19-.19-.37-.28-.47-.47s-.37-.28-.56-.37a1.73,1.73,0,0,0-.65-.19A2.09,2.09,0,0,0,154,1a2.51,2.51,0,0,0-1.21.28,2.63,2.63,0,0,0-1,.74,4,4,0,0,0-.66,1,3.05,3.05,0,0,0-.27,1.3h0a3,3,0,0,0,.27,1.3,3.87,3.87,0,0,0,.66,1,3.82,3.82,0,0,0,1,.74,2.81,2.81,0,0,0,1.21.28,3,3,0,0,0,1.39-.28,4,4,0,0,0,1.12-.84l.37.38A1.71,1.71,0,0,0,156.25,7.41Z"/><path d="M164.16,8l-.93-2h-4.37L157.93,8h-.56L160.81.53h.56L164.81,8Zm-3.07-6.79-2,4.28H163Z"/><path d="M167.6,1.08V8H167V1.08h-2.6V.62h5.67v.46Z"/><path d="M171.6,8V.62h.56V8Z"/><path d="M180.91,5.74A5.72,5.72,0,0,1,180.16,7a2.76,2.76,0,0,1-1.21.83,3.77,3.77,0,0,1-1.49.28A3.46,3.46,0,0,1,176,7.78,4.44,4.44,0,0,1,174.77,7,5.72,5.72,0,0,1,174,5.74a4,4,0,0,1-.28-1.49h0A4.32,4.32,0,0,1,174,2.76a5.25,5.25,0,0,1,.75-1.21A2.87,2.87,0,0,1,176,.71a4.08,4.08,0,0,1,3,0,3.57,3.57,0,0,1,1.21.84,3.32,3.32,0,0,1,.75,1.21,4,4,0,0,1,.28,1.49h0A8.05,8.05,0,0,1,180.91,5.74Zm-.38-1.4a3.05,3.05,0,0,0-.27-1.3,4,4,0,0,0-.66-1,4.52,4.52,0,0,0-1-.74,2.92,2.92,0,0,0-1.3-.28,3.17,3.17,0,0,0-1.3.28A2.66,2.66,0,0,0,175,2a4,4,0,0,0-.65,1,2.9,2.9,0,0,0-.19,1.3h0a3,3,0,0,0,.28,1.3,3.87,3.87,0,0,0,.66,1,3.82,3.82,0,0,0,1,.74,2.92,2.92,0,0,0,1.3.28,3.17,3.17,0,0,0,1.3-.28,2.56,2.56,0,0,0,1-.74,3.84,3.84,0,0,0,.65-1,3.23,3.23,0,0,0,.18-1.3Z"/><path d="M188.35,8l-5.21-6.61V8h-.56V.62h.56L188.26,7V.62h.55V8Z"/><path d="M190.58,7V6.48l4.28-2.14-4.28-2.23V1.55l4.93,2.51v.47Z"/><path d="M57.45,23.69l-.93-2.14h-4.1l-.84,2.14H49.44l4.19-9.77h2l4.18,9.77Zm-3-7.16-1.3,3.16h2.6Z"/><path d="M68.24,23.41a6.08,6.08,0,0,1-2.33.47,4.68,4.68,0,0,1-2-.37,5.78,5.78,0,0,1-1.59-1,3.64,3.64,0,0,1-1-1.58A4.82,4.82,0,0,1,60.89,19h0a4.9,4.9,0,0,1,.37-2,9.93,9.93,0,0,1,1-1.58,6.08,6.08,0,0,1,1.59-1.11,5,5,0,0,1,2-.38,4.56,4.56,0,0,1,1.21.1c.37.09.65.18,1,.28s.55.27.83.37a4.72,4.72,0,0,1,.75.56l-1.31,1.58a1.77,1.77,0,0,0-.55-.37l-.56-.28a1.28,1.28,0,0,0-.65-.19c-.19,0-.47-.09-.75-.09a2.4,2.4,0,0,0-1.11.28,1.9,1.9,0,0,0-.84.65,3,3,0,0,0-.56.93A2.49,2.49,0,0,0,63.21,19h0a4.87,4.87,0,0,0,.19,1.21,2.45,2.45,0,0,0,.65.93,3.45,3.45,0,0,0,.93.65,2.64,2.64,0,0,0,1.21.18,3.56,3.56,0,0,0,2-.55V20H66.1V18.11h4.19V22.3A16.34,16.34,0,0,1,68.24,23.41Z"/><path d="M72.15,23.69V14H79.4v1.86H74.19v1.95h4.56v1.86H74.19v2H79.4V23.6H72.15Z"/><path d="M88.33,23.69l-4.65-6.14v6.14H81.54V14h2L88.06,20V14H90.2v9.67Z"/><path d="M100.34,22.86l-.84.55a3.43,3.43,0,0,1-1,.38,6,6,0,0,1-1.31.09,4.3,4.3,0,0,1-2-.37,6.35,6.35,0,0,1-1.58-1,4.56,4.56,0,0,1-1-1.58A4.82,4.82,0,0,1,92.24,19h0a4.9,4.9,0,0,1,.37-2,5.88,5.88,0,0,1,1-1.58,4.74,4.74,0,0,1,1.58-1.11,5,5,0,0,1,2-.38,4.64,4.64,0,0,1,1.21.1c.37.09.74.18,1,.28a3.5,3.5,0,0,1,.84.46,4.79,4.79,0,0,1,.74.65L99.68,17a4.22,4.22,0,0,0-1.11-.83,2.92,2.92,0,0,0-1.3-.28,2.41,2.41,0,0,0-1.12.28,3.24,3.24,0,0,0-.93.65,1.92,1.92,0,0,0-.56.93A4.8,4.8,0,0,0,94.47,19h0a5.64,5.64,0,0,0,.19,1.21,3,3,0,0,0,.56.93,5.29,5.29,0,0,0,.84.65,2.53,2.53,0,0,0,1.11.28,3.2,3.2,0,0,0,1.4-.28,4.51,4.51,0,0,0,1.11-.84l1.4,1.4C100.8,22.39,100.62,22.67,100.34,22.86Z"/><path d="M102.94,23.69V14h7.26v1.86H105v1.95h4.56v1.86H105v2h5.21V23.6h-7.26Z"/><path d="M58.75,37.37a4.29,4.29,0,0,1-1,1.49,5.25,5.25,0,0,1-1.68,1,5,5,0,0,1-2,.37H50.19V30.67H54a4.72,4.72,0,0,1,2,.37,5.1,5.1,0,0,1,1.68,1,4,4,0,0,1,1,1.48,6.21,6.21,0,0,1,.37,1.87h0A4.3,4.3,0,0,1,58.75,37.37Zm-1.86-1.95a4.8,4.8,0,0,0-.19-1.21,2.78,2.78,0,0,0-.56-.93,1.52,1.52,0,0,0-.93-.56A2.49,2.49,0,0,0,54,32.53H52.33v5.86H54a4.82,4.82,0,0,0,1.21-.18,3.29,3.29,0,0,0,.93-.56,1.58,1.58,0,0,0,.56-.93,5.65,5.65,0,0,0,.19-1.3Z"/><path d="M61,40.25V30.67h7.26v1.86H63v1.95h4.56v1.87H63v2h5.21v1.86Z"/><path d="M82.1,39.42l-.84.55a3.43,3.43,0,0,1-1,.38,5.9,5.9,0,0,1-1.3.09,4.32,4.32,0,0,1-2-.37,6.54,6.54,0,0,1-1.58-1,4.68,4.68,0,0,1-1-1.58,4.82,4.82,0,0,1-.37-2h0a4.9,4.9,0,0,1,.37-2,6.09,6.09,0,0,1,1-1.58A5,5,0,0,1,77,30.86a5.05,5.05,0,0,1,2-.38,4.56,4.56,0,0,1,1.21.1c.37.09.74.18,1,.28a3.88,3.88,0,0,1,.84.46,4.83,4.83,0,0,1,.75.65l-1.4,1.58a4.1,4.1,0,0,0-1.12-.83,2.89,2.89,0,0,0-1.3-.28,2.47,2.47,0,0,0-1.12.28,3.24,3.24,0,0,0-.93.65,1.9,1.9,0,0,0-.55.93,4.31,4.31,0,0,0-.19,1.12h0a5,5,0,0,0,.19,1.2,3.11,3.11,0,0,0,.55.94,6,6,0,0,0,.84.65,2.57,2.57,0,0,0,1.12.28,3.15,3.15,0,0,0,1.39-.28,4.37,4.37,0,0,0,1.12-.84l1.4,1.39A5.59,5.59,0,0,1,82.1,39.42Z"/><path d="M94,37.37A5.91,5.91,0,0,1,92.89,39a5.16,5.16,0,0,1-1.67,1.12,5,5,0,0,1-2,.37,5,5,0,0,1-2-.37,5.15,5.15,0,0,1-1.58-1,3.64,3.64,0,0,1-1-1.58,4.3,4.3,0,0,1-.37-2h0a4.9,4.9,0,0,1,.37-2,9.93,9.93,0,0,1,1-1.58,5.46,5.46,0,0,1,1.68-1.11,5.69,5.69,0,0,1,4.09,0,5.2,5.2,0,0,1,1.58,1,3.62,3.62,0,0,1,1,1.58,4.32,4.32,0,0,1,.37,2h0A2.78,2.78,0,0,1,94,37.37Zm-1.77-1.95a5.53,5.53,0,0,0-.18-1.21,3.41,3.41,0,0,0-1.59-1.59,2.82,2.82,0,0,0-2.41,0,3.38,3.38,0,0,0-.94.66,1.88,1.88,0,0,0-.55.93,2.49,2.49,0,0,0-.19,1.21h0a5,5,0,0,0,.19,1.2,3.15,3.15,0,0,0,.65.94,3.68,3.68,0,0,0,.93.65,2.63,2.63,0,0,0,1.21.28,2.66,2.66,0,0,0,1.21-.28,3.68,3.68,0,0,0,.93-.65,2,2,0,0,0,.56-.94,4.8,4.8,0,0,0,.18-1.2Z"/><path d="M103.87,40.25V33.93L101.17,38h-.09l-2.7-4.09v6.23H96.24V30.67h2.33l2.51,4.09,2.51-4.09h2.33v9.68h-2Z"/><path d="M115.87,40.25V33.93L113.18,38h-.1l-2.7-4.09v6.23h-2.14V30.67h2.33l2.51,4.09,2.51-4.09h2.33v9.68h-2Z"/><path d="M128.25,38a3.64,3.64,0,0,1-.84,1.4,3.84,3.84,0,0,1-1.3.83,5.34,5.34,0,0,1-1.77.28,4.16,4.16,0,0,1-3.07-1.11,4.35,4.35,0,0,1-1.12-3.26V30.67h2.14v5.49a2.38,2.38,0,0,0,.56,1.77,2,2,0,0,0,1.49.56,1.85,1.85,0,0,0,1.49-.56,2.38,2.38,0,0,0,.56-1.77V30.67h2.14v5.49A6.19,6.19,0,0,1,128.25,38Z"/><path d="M137.46,40.25l-4.65-6.14v6.14h-2.14V30.67h2l4.56,5.95V30.67h2.14v9.68h-1.86Z"/><path d="M141.74,40.25V30.67h2.14v9.68h-2.14Z"/><path d="M154,39.42l-.84.55a3.43,3.43,0,0,1-1,.38,5.9,5.9,0,0,1-1.3.09,4.32,4.32,0,0,1-2-.37,6.54,6.54,0,0,1-1.58-1,4.54,4.54,0,0,1-1-1.58,4.84,4.84,0,0,1-.38-2h0a4.92,4.92,0,0,1,.38-2,5.84,5.84,0,0,1,1-1.58A4.72,4.72,0,0,1,151,30.48a4.6,4.6,0,0,1,1.21.1c.37.09.74.18,1,.28a3.88,3.88,0,0,1,.84.46,4.79,4.79,0,0,1,.74.65l-1.39,1.58a4.26,4.26,0,0,0-1.12-.83,2.92,2.92,0,0,0-1.3-.28,2.44,2.44,0,0,0-1.12.28,3.24,3.24,0,0,0-.93.65,2,2,0,0,0-.56.93,4.82,4.82,0,0,0-.18,1.21h0a5.62,5.62,0,0,0,.18,1.21,3.44,3.44,0,0,0,.56.93,5.29,5.29,0,0,0,.84.65,2.17,2.17,0,0,0,1.12.28,3,3,0,0,0,1.39-.28,4.55,4.55,0,0,0,1.12-.84l1.39,1.4A2.08,2.08,0,0,0,154,39.42Z"/><path d="M163.6,40.25l-.84-2.14h-4.09l-.84,2.14h-2.14l4.19-9.77h2L166,40.25Zm-2.88-7.16-1.31,3.16H162Z"/><path d="M171.7,32.62v7.73h-2.14V32.62h-3V30.67h8v1.95Z"/><path d="M176.44,40.25V30.67h2.14v9.68h-2.14Z"/><path d="M190.4,37.37A6.15,6.15,0,0,1,189.28,39a5.27,5.27,0,0,1-1.67,1.12,5,5,0,0,1-2.05.37,5,5,0,0,1-3.63-1.4,3.47,3.47,0,0,1-1-1.58,4.3,4.3,0,0,1-.38-2h0a4.92,4.92,0,0,1,.38-2,9.93,9.93,0,0,1,1-1.58,5.42,5.42,0,0,1,1.67-1.11,5.05,5.05,0,0,1,2.05-.38,5,5,0,0,1,2,.38,5.2,5.2,0,0,1,1.58,1,3.6,3.6,0,0,1,1,1.58,4.32,4.32,0,0,1,.38,2h0A3.37,3.37,0,0,1,190.4,37.37Zm-1.86-1.95a5.54,5.54,0,0,0-.19-1.21,3.16,3.16,0,0,0-.65-.93,3.48,3.48,0,0,0-.93-.66,2.66,2.66,0,0,0-1.21-.27,2.63,2.63,0,0,0-1.21.27,3.48,3.48,0,0,0-.93.66,1.83,1.83,0,0,0-.56.93,4.8,4.8,0,0,0-.19,1.21h0a5.55,5.55,0,0,0,.19,1.2,2.08,2.08,0,0,0,.65.94,3.68,3.68,0,0,0,.93.65,2.66,2.66,0,0,0,1.21.28,2.63,2.63,0,0,0,1.21-.28,3.68,3.68,0,0,0,.93-.65,1.9,1.9,0,0,0,.56-.94,4.79,4.79,0,0,0,.19-1.2Z"/><path d="M199.42,40.25l-4.65-6.14v6.14h-2.14V30.67h2l4.56,5.95V30.67h2.14v9.68h-1.86Z"/><path d="M58.75,53.93a4.29,4.29,0,0,1-1,1.49,5.25,5.25,0,0,1-1.68,1,5,5,0,0,1-2,.37H50.19V47.23H54a4.72,4.72,0,0,1,2,.37,5.1,5.1,0,0,1,1.68,1,3.94,3.94,0,0,1,1,1.49A6.09,6.09,0,0,1,59.12,52h0A4.3,4.3,0,0,1,58.75,53.93Zm-1.86-1.86a4.8,4.8,0,0,0-.19-1.21,3,3,0,0,0-.56-.93,1.52,1.52,0,0,0-.93-.56A2.49,2.49,0,0,0,54,49.18H52.33v5.87H54a4.8,4.8,0,0,0,1.21-.19,2.89,2.89,0,0,0,.93-.56,1.55,1.55,0,0,0,.56-.93,6.48,6.48,0,0,0,.19-1.3Z"/><path d="M61.07,56.81V47.23h2.14v9.68H61.07Z"/><path d="M72.61,56.53a6.07,6.07,0,0,1-2.32.47,4.72,4.72,0,0,1-2.05-.37,4.56,4.56,0,0,1-1.58-1,3.57,3.57,0,0,1-1-1.58,4.82,4.82,0,0,1-.37-2h0a4.82,4.82,0,0,1,.37-2,9,9,0,0,1,1-1.59,6.11,6.11,0,0,1,1.58-1.11,6.51,6.51,0,0,1,3.25-.28c.38.09.66.18,1,.28s.56.28.84.37a5.94,5.94,0,0,1,.74.56l-1.3,1.58a1.93,1.93,0,0,0-.56-.37l-.56-.28a1.28,1.28,0,0,0-.65-.19c-.19,0-.47-.09-.74-.09a2.41,2.41,0,0,0-1.12.28,2,2,0,0,0-.84.65,3.44,3.44,0,0,0-.56.93,4.82,4.82,0,0,0-.18,1.21h0a4.89,4.89,0,0,0,.18,1.21,2.56,2.56,0,0,0,.65.93,3.45,3.45,0,0,0,.93.65,2.53,2.53,0,0,0,1.21.19,3.56,3.56,0,0,0,2-.56v-1.4H70.47V51.23h4.19v4.19A10.86,10.86,0,0,1,72.61,56.53Z"/><path d="M76.61,56.81V47.23h2.14v9.68H76.61Z"/><path d="M85.45,49.18v7.73H83.31V49.18h-3v-2h8v2Z"/><path d="M97.27,56.81l-.84-2.14h-4.1l-.83,2.14H89.26l4.19-9.76h2l4.18,9.76Zm-3-7.16L93,52.81h2.6Z"/><path d="M101,56.81V47.23h2.14V55H108v2h-7Z"/><path d="M109.55,56.81V47.23h7.25v1.86h-5.21v2h4.56v1.86h-4.56v2h5.21v1.86Z"/><path class="cls-1" d="M36.43,57.33H0V0H36.43ZM3.54,53.8H32.89V3.54H3.54Z"/><polygon class="cls-1" points="14.15 17.77 18.17 21.79 22.27 17.77 22.27 23.08 25.09 23.08 25.09 10.78 18.17 17.69 11.26 10.78 11.26 23.08 14.15 23.08 14.15 17.77"/><polygon class="cls-1" points="25.09 38.03 25.09 25.73 22.19 25.73 22.19 31.04 18.17 27.02 14.15 31.04 14.15 25.73 11.26 25.73 11.26 38.03 18.17 31.12 25.09 38.03"/><polygon class="cls-1" points="18.41 35.06 10.78 44.47 12.87 46.48 18.41 39.16 23.56 46.4 25.57 44.39 18.41 35.06"/><rect class="cls-1" x="16.81" y="42.86" width="2.81" height="2.81"/></g></g></svg>